<?xml version="1.0" encoding="UTF-8"?><svg id="a" xmlns="http://www.w3.org/2000/svg" viewBox="0 0 2000 2000"><defs><style>.b{fill:#f7baab;}.c{fill:#101010;stroke:#f7baab;stroke-miterlimit:10;stroke-width:20px;}</style></defs><circle class="c" cx="987.3" cy="1000" r="835.39"/><g><path class="b" d="M850.83,888.95v8.97c0,8.36-5.06,15.88-12.79,19.05l-158.56,64.81c-17.06,6.97-17.05,31.14,.02,38.1l158.53,64.62c7.75,3.16,12.81,10.69,12.81,19.05v8.91c0,14.65-14.87,24.6-28.41,19.03l-246.45-101.47c-7.71-3.17-12.74-10.69-12.74-19.03v-21c0-8.35,5.05-15.87,12.77-19.04l246.45-101.05c13.54-5.55,28.38,4.41,28.38,19.04Z"/><path class="b" d="M893.71,1168.37l131.56-351.18c3.01-8.03,10.69-13.36,19.27-13.36h0c14.36,0,24.31,14.34,19.27,27.79l-131.56,351.18c-3.01,8.03-10.69,13.36-19.27,13.36h0c-14.36,0-24.31-14.34-19.27-27.79Z"/><path class="b" d="M1152.16,869.91l246.45,101.05c7.73,3.17,12.77,10.69,12.77,19.04v21c0,8.34-5.03,15.85-12.74,19.03l-246.45,101.47c-13.54,5.58-28.41-4.38-28.41-19.03v-8.9c0-8.37,5.07-15.91,12.82-19.06l158.88-64.62c17.09-6.95,17.1-31.15,.02-38.11l-158.92-64.81c-7.74-3.16-12.81-10.69-12.81-19.05v-8.96c0-14.63,14.84-24.59,28.38-19.04Z"/></g></svg>