<?xml version="1.0" encoding="UTF-8"?><svg id="a" xmlns="http://www.w3.org/2000/svg" viewBox="0 0 2000 2000"><defs><style>.b{fill:#b5f4ef;}.c{fill:#101010;stroke:#b5f4ef;stroke-miterlimit:10;stroke-width:20px;}</style></defs><circle class="c" cx="977.69" cy="1013.3" r="835.39"/><path class="b" d="M1105.57,666.23h-255.44c-33.11,0-60.2,27.09-60.2,60.2v561.31c0,33.11,27.09,60.2,60.2,60.2h255.44c33.11,0,60.2-27.09,60.2-60.2V726.43c0-33.11-27.09-60.2-60.2-60.2Zm-208.47,23.05c1.87-1.88,4.45-3.04,7.29-3.04h146.92c5.68,0,10.33,4.65,10.33,10.33,0,2.84-1.16,5.43-3.04,7.3-1.87,1.87-4.45,3.04-7.29,3.04h-146.92c-5.68,0-10.33-4.65-10.33-10.33,0-2.84,1.16-5.42,3.04-7.29Zm80.75,646.32c-10.7,0-19.37-8.67-19.37-19.37s8.67-19.37,19.37-19.37,19.37,8.67,19.37,19.37-8.67,19.37-19.37,19.37Zm150.67-49.49h-301.34V728.05h301.34v558.06Z"/></svg>